# xmcd CD database file
#
# Track frame offsets:
#	150
#	37580
#	75175
#	114170
#	153620
#	192617
#	224215
#
# Disc length: 3461 seconds
#
# Revision: 4
# Processed by: cddbd v1.5.2PL0 Copyright (c) Steve Scherf et al.
# Submitted via: CDex 1.70beta2
#
DISCID=540d8307
DTITLE=Manhattan Jazz Orchestra - Get It On 黒い炎
DYEAR=1995
DGENRE=Jazz
TTITLE0=Get It On
TTITLE1=25 Or 6 To 4
TTITLE2=Spinning Wheel
TTITLE3=Pick Up The Pieces
TTITLE4=Got To Get You Into My Life
TTITLE5=Getaway
TTITLE6=You’ve Made Me So Very Happy
EXTD=YEAR: 1995
EXTT0=
EXTT1=
EXTT2=
EXTT3=
EXTT4=
EXTT5=
EXTT6=
PLAYORDER=
